<?xml version="1.0" standalone="no"?>
<!DOCTYPE svg PUBLIC "-//W3C//DTD SVG 20010904//EN"
 "http://www.w3.org/TR/2001/REC-SVG-20010904/DTD/svg10.dtd">
<svg version="1.0" xmlns="http://www.w3.org/2000/svg"
 width="129.000000pt" height="129.000000pt" viewBox="0 0 129.000000 129.000000"
 preserveAspectRatio="xMidYMid meet">
<metadata>
Created by potrace 1.11, written by Peter Selinger 2001-2013
</metadata>
<g transform="translate(0.000000,129.000000) scale(0.100000,-0.100000)"
fill="#000000" stroke="none">
<path d="M280 1253 c-99 -17 -168 -64 -213 -148 -21 -39 -22 -51 -25 -435 -2
-266 1 -410 8 -440 25 -101 105 -170 218 -190 46 -8 175 -11 417 -8 290 4 359
7 400 21 67 22 128 83 155 155 20 54 21 71 18 452 -3 377 -4 397 -24 440 -39
83 -104 130 -209 149 -55 10 -687 14 -745 4z m751 -79 c66 -20 132 -81 148
-139 7 -24 14 -175 18 -370 5 -287 4 -337 -10 -385 -20 -66 -64 -123 -120
-153 -41 -21 -52 -22 -396 -25 -307 -3 -361 -1 -405 13 -58 19 -108 62 -139
120 -21 39 -22 51 -22 400 0 325 2 365 18 407 22 57 91 122 145 136 20 6 187
10 373 11 281 1 344 -2 390 -15z"/>
<path d="M450 960 l0 -90 -100 0 -100 0 0 -220 0 -220 100 0 100 0 0 -90 0
-90 205 0 205 0 0 90 0 90 95 0 95 0 0 220 0 220 -95 0 -95 0 0 90 0 90 -205
0 -205 0 0 -90z"/>
</g>
</svg>
